<svg width="483" height="204" viewBox="0 0 483 204" fill="none" xmlns="http://www.w3.org/2000/svg">
<g clip-path="url(#clip0_1_2)">
<path d="M214.604 154.579C219.98 154.579 224.87 153.049 229.277 149.986C233.681 146.927 237.454 142.706 240.59 137.329C243.727 131.952 246.152 125.679 247.872 118.512C249.587 111.342 250.448 103.726 250.448 95.6614C250.448 87.4492 249.587 79.7551 247.872 72.587C246.152 65.4168 243.727 59.1457 240.59 53.7676C237.454 48.3925 233.68 44.1744 229.277 41.1104C224.87 38.0523 219.98 36.5193 214.604 36.5193C209.077 36.5193 204.11 38.0523 199.707 41.1104C195.299 44.1744 191.53 48.3925 188.394 53.7676C185.257 59.1457 182.828 65.4178 181.112 72.587C179.393 79.7551 178.536 87.4492 178.536 95.6614C178.536 103.726 179.393 111.342 181.112 118.512C182.828 125.679 185.257 131.952 188.394 137.329C191.53 142.706 195.299 146.927 199.707 149.986C204.11 153.048 209.077 154.579 214.604 154.579ZM214.604 34.2792C224.16 34.2792 232.6 35.8853 239.918 39.0943C247.235 42.3084 253.395 46.7125 258.399 52.3116C263.402 57.9137 267.172 64.4088 269.713 71.8019C272.252 79.1951 273.523 87.1482 273.523 95.6614C273.523 104.174 272.252 112.127 269.713 119.519C267.172 126.912 263.403 133.374 258.4 138.896C253.395 144.424 247.235 148.793 239.918 152.002C232.6 155.215 224.16 156.82 214.604 156.82C205.044 156.82 196.57 155.215 189.178 152.002C181.784 148.792 175.585 144.424 170.583 138.896C165.578 133.374 161.808 126.912 159.27 119.519C156.73 112.127 155.462 104.174 155.462 95.6614C155.462 87.1482 156.73 79.1951 159.27 71.8019C161.808 64.4088 165.578 57.9137 170.583 52.3136C175.585 46.7125 181.783 42.3084 189.178 39.0943C196.57 35.8853 205.044 34.2792 214.604 34.2792Z" fill="#ED0E67"/>
<path d="M353.049 33.6072C358.722 33.6072 362.829 34.8042 365.369 37.1913C367.907 39.5813 369.178 42.2694 369.178 45.2564C369.178 47.9445 368.243 50.3735 366.378 52.5366C364.508 54.7026 361.858 55.7836 358.425 55.7836C356.482 55.7836 354.729 55.4476 353.161 54.7756C351.547 54.0851 349.941 53.3757 348.343 52.6476C346.585 51.857 344.791 51.1472 342.967 50.5205C341.024 49.8485 338.71 49.5125 336.022 49.5125C332.886 49.5125 329.823 50.0725 326.838 51.1926C323.866 52.3017 321.157 54.0183 318.885 56.2326C316.567 58.4727 314.702 61.3127 313.284 64.7448C311.864 68.1829 311.156 72.2149 311.156 76.843V156.82H290.545V35.3993H311.156V65.6408C312.5 60.8637 314.627 56.5337 317.541 52.6476C320.453 48.7675 323.813 45.4054 327.621 42.5674C331.374 39.7601 335.528 37.5326 339.943 35.9593C344.345 34.3912 348.713 33.6072 353.049 33.6072Z" fill="#ED0E67"/>
<path d="M482.533 34.2792V156.82H461.923V131.504C460.579 135.688 458.524 139.384 455.762 142.593C452.998 145.805 449.747 148.564 446.129 150.77C442.468 153.01 438.512 154.69 434.256 155.811C430.053 156.924 425.723 157.489 421.375 157.492C416.041 157.5 410.743 156.629 405.693 154.914C400.613 153.199 396.094 150.624 392.139 147.186C388.18 143.751 385.005 139.383 382.617 134.081C380.227 128.781 379.034 122.544 379.034 115.375V34.7272H399.644V117.615C399.644 123.59 400.501 128.742 402.221 133.073C403.937 137.406 406.177 140.951 408.941 143.714C411.703 146.479 414.878 148.529 418.463 149.874C422.047 151.217 425.704 151.89 429.439 151.89C433.472 151.89 437.426 151.183 441.312 149.762C445.194 148.345 448.666 146.328 451.729 143.714C454.789 141.102 457.254 137.927 459.123 134.193C460.988 130.461 461.923 126.205 461.923 121.423V34.2792H482.533Z" fill="#ED0E67"/>
<path d="M270.5 171.381C268.182 169.288 265.606 168.245 262.77 168.245C260.978 168.245 259.221 168.727 257.507 169.701C255.787 170.67 254.259 172.277 252.915 174.517C247.537 183.926 241.602 190.757 235.104 195.015C228.608 199.271 221.848 201.399 214.831 201.399C209.751 201.399 204.561 200.352 199.261 198.263C193.958 196.169 188.843 193.184 183.914 189.302C178.987 185.417 174.243 180.712 169.689 175.189C165.132 169.662 160.987 163.539 157.256 156.819L105.731 64.2968L157.256 0.00360164H154.792L74.5914 99.6935V0.00260162H53.981V114.424C33.4506 124.244 15.3683 107.143 13.3933 88.0032C12.5612 79.9401 0.799031 79.9931 0.0670173 88.0662C-0.132986 90.2763 0.103018 92.9263 0.954034 96.0464C2.97807 104.105 15.5023 120.001 34.9907 120.001C41.9188 120.001 47.7529 118.881 53.35 116.419C53.56 116.321 53.771 116.217 53.981 116.116V156.82H74.5914V103.278L92.7377 80.6511L135.526 156.82C140.006 164.884 145.456 171.902 151.881 177.877C158.299 183.848 165.244 188.741 172.713 192.551C180.103 196.329 187.927 199.188 196.012 201.062C204.078 202.929 211.991 203.864 219.759 203.864C222.894 203.864 227.486 203.416 233.535 202.519C239.585 201.623 245.595 200.167 251.569 198.151C257.541 196.135 262.77 193.559 267.252 190.421C271.732 187.286 273.972 183.551 273.972 179.221C273.972 176.084 272.812 173.47 270.5 171.381Z" fill="#ED0E67"/>
</g>
<defs>
<clipPath id="clip0_1_2">
<rect width="482.533" height="203.867" fill="white"/>
</clipPath>
</defs>
</svg>
